<?xml version="1.0" encoding="UTF-8"?>
<svg id="Layer_1" xmlns="http://www.w3.org/2000/svg" version="1.1" viewBox="0 0 876 426.0028076">
  <!-- Generator: Adobe Illustrator 29.4.0, SVG Export Plug-In . SVG Version: 2.1.0 Build 29)  -->
  <defs>
    <style>
      .st0 {
        fill: #ea0000;
        fill-rule: evenodd;
      }
    </style>
  </defs>
  <g id="Layer_11" data-name="Layer_1">
    <g id="Layer_1-2">
      <g id="Layer_2">
        <g id="Layer_1-21" data-name="Layer_1-2">
          <path class="st0" d="M360.8999939,57.4000015c-6.3999939-5.7000008-16.7999878-9.0999985-27.1000061-9.2000008-24.5-.2999992-44.5,19.3999977-44.7999878,43.9000053v.5999985c-.1000061,24.5999985,20.1000061,44.2000046,44.7000122,44.2999954,13.7999878,0,25.7999878-5.6000061,34-15.4000015v-24.5c-4.3999939,7.5999985-13.2000122,17.2999954-21.1000061,20.7000046-4.1000061,1.8000031-8.3999939,2.6999969-12.8999939,2.6999969-15.2999878,0-28-11.9000015-28-27.6999969,0-15.4000015,12.5-27.9000015,27.8999939-27.9000015h0c7.3999939,0,14.3999939,3,19.6000061,8.1999969,5.2999878,5.0999985,13.5,15.8000031,17.3999939,20,20.7000122,22.2999954,55.5,23.5,77.6999817,2.8000031,11.1000061-10.4000015,17.5-24.9000015,17.5-40.2000008,0-30.3999996-24.7000122-55.7000008-55-55.7000008-17.6000061,0-33.2000122,9.1999998-43.2999878,22.1000004v32.9999981c7.7000122-21,21.5-37.7000008,43.2999878-37.7000008,21,0,37.8999939,17.1000023,37.8999939,38.0999985s-17,38.0000038-38,38.0000038c-8.8999939,0-17.6000061-3.1999969-24.3999939-8.9000015-7.8999939-6.5-17-20-25.3999939-27.2000008"/>
          <path class="st0" d="M234,149h61s-13,7.1000061-13,17.8000031v120.4000092c0,49.2999878-42.5,64.7999878-70.8999939,64.7999878-27.8999939,0-71.6000061-15.7000122-71.6000061-64.7999878l-.1000061-120.3999939c0-10.8000183-12.3999939-17.8000183-12.3999939-17.8000183h61.6000061s-14.1999969,7-14.1999969,17.8000031l-.1000061,120.4000092c0,25.5,16.8999939,43.1000061,36.9000092,43.2000122,19.8999939.1000061,36-17.8999939,36-43.2000122l.1000061-120.3999939c-.1000214-10.8000183-13.3000183-17.8000183-13.3000183-17.8000183Z"/>
          <path class="st0" d="M691.0999756,180.8999939s-8.5999756-15.1999969-33.5999756-15.1999969c-25-.1000061-38.5999756,13.1000061-38.5999756,30.1000061-.0999756,19.3000031,14.4000244,26.6000061,36.9000244,37.4000092,21.2999878,10.1999969,53.4000244,24.3999939,53.2999878,60.1000061-.0999756,32-28.4000244,58.7000122-79.0999756,58.7000122-15.5999756,0-37.2000122-5.2000122-37.2000122-5.2000122l-11.8000488-38.2000122c10.7000122,10.5,29.7999878,21.7000122,49.4000244,21.7000122,20.2999878,0,44.5-12.6000061,44.5-32.7000122,0-39-90.5-32.5-90.5-97.6999969,0-22.3999939,15.5999756-54.9000092,69.5999756-54.9000092,17.5,0,37,5.1999969,37,5.1999969l.0999756,30.6999969Z"/>
          <path class="st0" d="M451.1000061,149h136.8999939l-11.5999756,36.1000061s-3.5-15.1999969-16.7000122-15.1999969h-28.4000244v159.1999969c0,10.1000061,13.4000244,18.7999878,13.4000244,18.7999878h-60.8999939s13.2000122-7.8999939,13.2000122-18.7999878v-159.1000061h-34.2999878c-9.7000122,0-23.7000122,18.1999969-23.7000122,18.1999969l12.0999756-39.1999969Z"/>
          <path class="st0" d="M376,149h62s-13.7999878,6.6000061-13.7999878,17.6000061v162.5c0,11.6000061,13.7999878,18.8999939,13.7999878,18.8999939h-62s13.7999878-7.2000122,13.7999878-18.8999939v-162.5c0-11-13.7999878-17.6000061-13.7999878-17.6000061Z"/>
          <path class="st0" d="M305.6000061,149h62.3999939s-14,6.6000061-14,17.3000031v186.4999847c0,63-63.7000122,73.3999939-67,73.2000122,5.3999939-3.5,31.8999939-25.7999878,32-73.2000122v-186.4999847c0-10.1000061-13.3999939-17.3000031-13.3999939-17.3000031Z"/>
          <path class="st0" d="M815.9000244,149h60.0999756s-12.7999878,6.8000031-12.7999878,17.5v120.5c-.0999756,48.8999939-40.7999878,64-69,64-28,0-72-15.2000122-71.9000244-64v-120.5c0-10.8000031-13.2000122-17.5-13.2000122-17.5h61.7999878s-13.7999878,6.6000061-13.7999878,17.5v120.5c0,25.7000122,17.0999756,42.5,37.0999756,42.5,20.0999756,0,35.2999878-17.5,35.2999878-42.5v-120.5c.000061-10.6999969-13.5999146-17.5-13.5999146-17.5Z"/>
          <path class="st0" d="M0,149h121v33.8999939s-6.1999969-13.3999939-19.3000031-13.3999939h-55.9999962v58.6000061h60.7000008v31s-2-9.8999939-16.5999985-9.8999939h-44.1000023v80c0,11.7999878,12.7000008,18.7999878,12.7000008,18.7999878H.8s12.1000006-6.1000061,12.1000006-18.7999878v-159.3000183C12.9000006,156.5.000001,149,0,149Z"/>
        </g>
      </g>
    </g>
  </g>
</svg>