<svg width="649" height="200" viewBox="0 0 649 200" fill="none" xmlns="http://www.w3.org/2000/svg">
<path d="M52.6471 167.824C71.4521 173.094 83.8027 189.845 89.8385 200C64.5441 197.383 42.0758 185.378 25.9223 167.51C38.7265 164.997 48.6698 166.812 52.682 167.824M38.8311 102.53C35.4469 102.844 32.2023 98.3423 31.6441 92.4446C31.3301 89.2689 31.8883 86.3026 32.9698 84.2436C32.4116 84.1389 31.8883 84.0691 31.3301 84.1389C26.4108 84.6275 23.7941 91.293 24.5965 99.8081C25.4339 108.358 29.3763 115.512 34.2956 115.058C38.8311 114.64 42.0409 108.358 41.8316 100.715C40.9942 101.762 39.9825 102.425 38.8311 102.53ZM210.937 6.94469C210.379 9.84121 208.704 17.1 208.704 17.1C207.867 21.3924 205.809 24.7426 203.157 26.0339C201.168 27.011 197.191 28.9653 195.202 29.9424C194.749 30.1518 194.749 30.78 195.202 31.0243C197.191 32.0363 201.133 34.0255 203.122 35.0026C205.739 36.3287 207.797 39.7138 208.565 44.0063C208.565 44.0063 210.135 51.2999 210.658 54.1965C210.763 54.8595 211.705 54.8595 211.844 54.1965C212.403 51.2999 214.077 44.0412 214.077 44.0412C214.915 39.7487 216.973 36.3985 219.624 35.1073C221.613 34.1302 225.59 32.1759 227.579 31.1987C228.033 30.9894 228.033 30.3612 227.579 30.1518C225.59 29.1398 221.648 27.1506 219.659 26.1734C217.043 24.8473 214.984 21.4622 214.217 17.1698C214.217 17.1698 212.647 9.87611 212.123 6.97958C212.019 6.31652 211.077 6.31652 210.937 6.97958M155.359 144.233C156.511 143.849 158.43 143.186 158.465 141.337L158.116 136.032C158.29 134.392 157.627 132.891 155.673 133.729C154.801 134.113 154.348 135.229 153.65 135.823C152.708 136.59 151.487 137.009 150.37 137.393C135.682 142.139 104.282 143.675 89.0011 143.954C84.2214 144.024 81.3256 142.802 78.0461 139.312C73.685 134.706 69.3239 126.889 66.1141 126.435C47.0649 123.748 46.7858 114.221 46.7858 114.221C46.5067 114.012 47.5184 99.2148 46.8904 92.8983C45.5996 79.3579 39.18 72.832 32.5163 73.4601C26.9341 73.9836 21.7008 83.4409 21.1775 94.0499C21.1775 94.0499 17.6537 117.048 44.5878 134.322C46.8904 135.788 48.7744 142.942 49.6118 145.35C50.6584 148.351 54.566 150.48 58.4386 151.387C63.7068 152.644 75.9876 153.865 81.3605 153.97C119.564 154.702 142.695 148.421 155.394 144.163M81.9536 80.6142C82.1629 84.3832 81.5349 84.9066 80.3836 86.4422C79.4416 87.6985 78.4996 88.885 77.5925 89.9669C77.0343 90.6299 77.139 91.607 77.8367 92.1305C79.1625 93.1426 80.6278 94.0499 82.2327 94.8526C84.0818 95.7599 86.2798 98.5866 88.2685 101.972C89.7338 104.484 91.3038 106.683 92.9087 108.358C93.5018 108.951 94.4787 108.323 94.1647 107.555C93.2575 105.357 92.3504 102.879 91.548 100.192C90.5013 96.6323 90.606 93.1426 91.548 91.3977C92.3156 89.932 93.0133 88.536 93.6064 87.175C93.9902 86.3026 93.5715 85.2905 92.6644 85.0113C91.4782 84.5926 90.2571 84.1389 88.9662 83.6154C87.2916 82.9873 86.5589 83.092 85.2331 79.5324C84.2563 76.9499 83.6283 75.3097 83.0003 73.844C82.7909 73.3205 82.0234 73.4601 81.9885 74.0185C81.8838 75.9379 81.7792 77.7526 81.9536 80.7189M46.9602 75.2399C46.9602 75.2399 46.8556 75.4493 46.9253 75.554C49.0535 78.9391 50.6235 83.5805 51.2864 89.5481C51.3213 89.9668 51.426 90.8742 51.426 90.8742C51.426 91.0836 51.6353 91.2581 51.8097 91.2232C51.9842 91.2232 52.054 91.1185 52.1586 91.0487C52.2284 90.9789 85.1285 61.525 85.1285 61.525C86.6287 60.164 88.3731 59.0822 90.2222 58.2795C118.971 46.0304 133.24 51.5791 135.298 52.5214C135.473 52.5912 135.543 52.6261 135.752 52.5214C135.926 52.3818 136.52 51.9281 136.624 51.8234C136.799 51.6838 136.485 51.4395 136.485 51.4395L123.541 40.0628C123.541 40.0628 123.192 39.8185 123.018 39.7138C109.376 33.6416 88.0242 41.2493 84.5354 42.5755C84.2563 42.6802 83.9423 42.6104 83.7329 42.401L81.2209 39.9232C80.8721 39.6091 80.8721 38.981 81.2907 38.7367C90.3269 33.4322 99.3282 32.2457 108.992 32.3155C109.934 32.3155 110.109 30.9545 109.202 30.7451C100.514 28.5465 87.7451 26.313 78.5694 26.3479C70.3706 26.3479 60.3575 27.5694 57.5315 28.6163C55.0893 29.5236 54.5311 34.0953 54.5311 34.0953C54.5311 34.0953 72.6383 38.981 77.2436 45.7861C77.4878 46.17 77.4181 46.6585 77.0692 46.9726L46.9951 75.2748M138.752 59.8848C137.776 58.3144 136.066 53.7079 120.436 57.0581C119.424 57.2675 118.761 58.3144 119.285 59.1869C142.416 96.6672 123.995 125.702 115.551 135.16C114.923 135.858 115.447 136.87 116.424 136.905C127.239 136.974 138.369 135.334 144.474 133.275C149.01 131.775 153.685 128.704 153.894 122.806C154.069 117.955 153.789 109.231 153.301 105.113C152.394 97.4001 150.963 89.7575 148.696 82.3242C146.323 74.4722 143.044 66.8993 138.752 59.8848ZM100.27 0C155.639 0 200.54 44.9136 200.54 100.297C200.54 132.891 184.98 161.857 160.872 180.178C159.127 176.269 157.662 171.942 156.72 166.672C156.581 165.87 155.639 165.521 154.906 165.8C146.777 168.976 140.881 170.651 132.507 171.593C129.577 171.907 126.611 172.256 123.646 172.535C120.715 172.815 117.819 172.989 114.889 172.989C113.598 172.989 112.342 172.849 111.051 172.64C110.318 172.5 109.969 171.384 109.795 170.756L109.655 170.232C118.412 169.185 127.134 168.103 135.752 166.149C139.625 165.277 143.462 164.334 147.23 163.113C149.114 162.52 150.998 161.857 152.813 161.124C153.72 160.74 154.627 160.356 155.534 159.972C155.639 159.937 156.162 159.693 156.615 159.449C157.104 159.204 157.418 158.716 157.383 158.157C157.313 156.517 157.209 153.132 157.278 152.155C157.278 151.666 156.86 151.248 156.371 151.387C113.493 163.741 72.4988 162.589 55.3335 158.716C49.2629 157.355 44.3785 155.051 43.0178 152.539C40.6802 148.246 39.6336 142.942 38.5869 139.522C38.3078 138.58 35.9703 136.765 34.8887 135.927C34.6445 135.718 34.3654 135.823 34.2607 136.137C33.3187 139.208 33.4234 147.583 34.8189 153.481C35.2725 155.4 35.8307 157.32 36.3889 159.03C36.5285 159.449 36.2145 159.832 35.7958 159.867C30.3532 160.286 25.5385 161.228 21.4915 162.31C8.05929 145.21 0 123.713 0 100.297C0 44.9136 44.9018 0 100.27 0ZM279.005 114.919C280.575 114.081 281.866 112.965 282.878 111.604C283.89 110.277 284.657 108.707 285.18 106.997C285.704 105.287 285.948 103.542 285.948 101.797C285.948 100.052 285.669 98.3424 285.18 96.6673C284.657 94.9921 283.89 93.4566 282.878 92.0956C281.866 90.7346 280.54 89.6528 279.005 88.8152C277.435 87.9777 275.586 87.5589 273.493 87.5589C271.504 87.5589 269.725 87.9777 268.155 88.8501C266.585 89.7226 265.224 90.8393 264.142 92.1654C263.026 93.5264 262.189 95.0619 261.596 96.7719C261.037 98.4819 260.723 100.227 260.723 101.937C260.723 103.647 261.003 105.392 261.596 107.067C262.154 108.742 263.026 110.312 264.142 111.638C265.259 112.999 266.62 114.081 268.155 114.919C269.69 115.756 271.504 116.175 273.493 116.175C275.586 116.175 277.435 115.756 279.005 114.884M291.391 85.0113C293.275 87.1401 294.775 89.6528 295.787 92.5144C296.833 95.376 297.357 98.5168 297.357 101.797C297.357 105.078 296.833 108.218 295.856 111.115C294.845 114.012 293.414 116.559 291.53 118.688C289.681 120.852 287.378 122.562 284.727 123.853C282.075 125.144 279.04 125.772 275.691 125.772C272.586 125.772 269.69 125.109 267.108 123.783C264.526 122.492 262.538 120.712 261.107 118.513V146.816H249.908V79.4277H260.654V85.6744H260.793C261.247 84.8717 261.979 83.9644 262.852 83.0571C263.724 82.1497 264.84 81.3471 266.131 80.6142C267.422 79.9162 268.887 79.2881 270.492 78.8344C272.097 78.3807 273.946 78.1365 275.97 78.1365C279.075 78.1365 281.971 78.7646 284.622 79.9511C287.239 81.1726 289.541 82.8477 291.425 84.9764M315.673 111.255C316.72 112.581 318.046 113.628 319.546 114.43C321.081 115.233 322.825 115.617 324.744 115.617C326.663 115.617 328.547 115.233 330.117 114.465C331.722 113.697 333.083 112.65 334.199 111.394C335.315 110.103 336.188 108.602 336.781 106.927C337.374 105.252 337.688 103.472 337.688 101.623C337.688 99.7732 337.374 97.8887 336.781 96.1787C336.188 94.4687 335.315 92.9681 334.199 91.6768C333.083 90.3856 331.722 89.3736 330.187 88.6407C328.617 87.9079 326.838 87.524 324.849 87.524C322.86 87.524 321.081 87.9079 319.546 88.6407C318.011 89.3736 316.72 90.3856 315.673 91.6419C314.626 92.8983 313.789 94.3989 313.231 96.1089C312.673 97.8189 312.359 99.6685 312.359 101.658C312.359 103.437 312.638 105.182 313.231 106.823C313.789 108.463 314.626 109.963 315.673 111.289M337.688 79.4626H348.364V122.108C348.364 126.121 347.875 129.82 346.899 133.101C345.922 136.381 344.387 139.173 342.363 141.441C340.305 143.71 337.723 145.489 334.618 146.746C331.513 148.002 327.78 148.63 323.523 148.63C321.779 148.63 319.86 148.456 317.871 148.142C315.917 147.828 313.929 147.374 312.01 146.746C310.091 146.118 308.242 145.35 306.462 144.408C304.683 143.465 303.078 142.418 301.683 141.232L308.033 132.263L308.137 132.368C310.23 134.392 312.673 135.962 315.324 137.044C317.976 138.126 320.697 138.649 323.418 138.649C326.14 138.649 328.198 138.266 329.978 137.498C331.757 136.73 333.187 135.648 334.234 134.322C335.281 132.961 336.048 131.356 336.502 129.506C336.955 127.657 337.165 125.598 337.165 123.364V118.444H337.13C335.629 120.607 333.571 122.317 331.094 123.469C328.617 124.62 325.826 125.214 322.79 125.214C319.511 125.214 316.476 124.586 313.789 123.329C311.103 122.073 308.8 120.363 306.951 118.269C305.102 116.14 303.637 113.663 302.59 110.801C301.543 107.974 301.02 104.938 301.02 101.762C301.02 98.5866 301.543 95.4458 302.52 92.5842C303.532 89.7226 304.962 87.2099 306.846 85.0811C308.695 82.9524 310.998 81.2773 313.65 80.0209C316.301 78.7646 319.336 78.1365 322.616 78.1365C325.721 78.1365 328.652 78.7995 331.338 80.0907C333.99 81.382 336.153 83.406 337.723 86.1281V79.4277L337.688 79.4626ZM366.576 113.977C367.029 114.675 367.588 115.233 368.32 115.652C369.018 116.07 369.855 116.385 370.762 116.559C371.67 116.734 372.577 116.838 373.484 116.838C377.217 116.838 380.043 115.826 381.962 113.802C383.881 111.778 384.857 108.986 384.857 105.496V104.031H382.52C380.775 104.031 378.892 104.101 376.973 104.275C375.054 104.415 373.24 104.764 371.6 105.287C369.995 105.811 368.634 106.543 367.553 107.486C366.506 108.428 365.948 109.719 365.948 111.359C365.948 112.371 366.157 113.244 366.611 113.942M391.521 84.2785C392.987 86.0932 394.033 88.1522 394.591 90.3856C395.185 92.6191 395.464 94.8875 395.464 97.1209V124.481H384.962V118.793H384.823C383.846 120.712 382.031 122.387 379.589 123.678C377.147 124.969 374.321 125.598 371.216 125.598C369.437 125.598 367.588 125.353 365.669 124.9C363.75 124.411 361.936 123.643 360.331 122.562C358.726 121.48 357.33 120.014 356.284 118.234C355.202 116.454 354.679 114.221 354.679 111.604C354.679 108.218 355.621 105.496 357.505 103.507C359.354 101.518 361.796 99.9477 364.727 98.9007C367.657 97.8538 370.937 97.1209 374.496 96.8068C378.019 96.4579 381.473 96.2834 384.823 96.2834V95.2713C384.823 92.5493 383.846 90.4903 381.927 89.1642C379.973 87.8381 377.635 87.175 374.914 87.175C372.646 87.175 370.414 87.6636 368.32 88.6407C366.192 89.6179 364.448 90.8393 363.052 92.2352L362.947 92.3399L357.191 85.4301C359.703 82.8826 362.598 81.1028 365.878 79.9162C369.123 78.7297 372.472 78.1365 375.821 78.1365C379.729 78.1365 382.973 78.6948 385.52 79.8116C388.067 80.9283 390.091 82.4289 391.556 84.2436M440.226 83.7899C438.9 82.1148 437.191 80.7189 435.167 79.7069C433.109 78.6599 430.631 78.1365 427.771 78.1365C424.491 78.1365 421.595 79.0089 419.153 80.7189C416.746 82.4289 415.036 84.453 414.164 86.6166H414.094V79.4277H403.418V124.446H414.618V99.7034C414.618 98.2377 414.827 96.737 415.246 95.3062C415.664 93.8754 416.292 92.5842 417.095 91.4675C417.897 90.3507 418.944 89.4434 420.2 88.7454C421.456 88.0475 422.956 87.6985 424.7 87.6985C426.445 87.6985 427.84 88.0824 428.887 88.7803C429.934 89.5132 430.771 90.4554 431.364 91.5722C431.957 92.7238 432.376 93.9801 432.55 95.4109C432.725 96.8068 432.829 98.2028 432.829 99.494V124.411H444.029V96.3183C444.029 94.015 443.715 91.7466 443.122 89.583C442.529 87.3844 441.552 85.4301 440.226 83.755M461.648 113.977C462.101 114.675 462.659 115.233 463.392 115.652C464.09 116.07 464.927 116.385 465.834 116.559C466.741 116.734 467.648 116.838 468.556 116.838C472.289 116.838 475.115 115.826 477.033 113.802C478.952 111.778 479.929 108.986 479.929 105.496V104.031H477.592C475.847 104.031 473.963 104.101 472.044 104.275C470.126 104.415 468.311 104.764 466.672 105.287C465.067 105.811 463.671 106.543 462.59 107.486C461.543 108.428 460.985 109.719 460.985 111.359C460.985 112.371 461.194 113.244 461.648 113.942M486.628 84.2785C488.093 86.0932 489.14 88.1522 489.698 90.3856C490.291 92.6191 490.57 94.8875 490.57 97.1209V124.481H480.069V118.793H479.929C478.952 120.712 477.138 122.387 474.696 123.678C472.254 124.969 469.428 125.598 466.323 125.598C464.543 125.598 462.694 125.353 460.775 124.9C458.856 124.411 457.042 123.643 455.437 122.562C453.832 121.48 452.437 120.014 451.39 118.234C450.309 116.454 449.785 114.221 449.785 111.604C449.785 108.218 450.727 105.496 452.611 103.507C454.46 101.518 456.903 99.9477 459.833 98.9007C462.764 97.8538 466.044 97.1209 469.602 96.8068C473.126 96.4579 476.58 96.2834 479.929 96.2834V95.2713C479.929 92.5493 478.952 90.4903 477.033 89.1642C475.08 87.8381 472.742 87.175 470.021 87.175C467.753 87.175 465.52 87.6636 463.427 88.6407C461.299 89.6179 459.554 90.8393 458.159 92.2352L458.054 92.3399L452.297 85.4301C454.809 82.8826 457.74 81.1028 460.985 79.9162C464.229 78.7297 467.579 78.1365 470.928 78.1365C474.835 78.1365 478.08 78.6948 480.627 79.8116C483.174 80.9283 485.197 82.4289 486.663 84.2436M499.188 124.481H510.387V53.7428H499.188V124.481ZM539.484 111.987L539.414 112.057L527.064 79.4277H514.713L533.588 124.272L531.146 130.553C530.657 131.74 530.204 132.752 529.785 133.624C529.367 134.497 528.878 135.195 528.355 135.788C527.831 136.346 527.169 136.8 526.401 137.044C525.633 137.323 524.657 137.463 523.505 137.463C522.912 137.463 522.249 137.428 521.552 137.323C520.854 137.219 520.156 137.044 519.423 136.8H519.284L518.446 146.746C519.423 146.99 520.4 147.165 521.342 147.269C522.284 147.374 523.226 147.409 524.133 147.409C526.575 147.409 528.669 147.13 530.413 146.571C532.158 146.013 533.693 145.175 534.984 144.094C536.275 143.012 537.391 141.651 538.298 140.045C539.205 138.475 540.077 136.625 540.88 134.566L561.918 79.4277L550.195 79.4975L539.449 111.953L539.484 111.987ZM600.365 89.4783V79.4626H564.5V88.6756H586.898L563.383 114.465V124.481H601.447V115.093H576.78L600.365 89.4783ZM627.613 86.7911C624.369 86.7911 621.577 87.8032 619.345 89.7924C617.112 91.7466 615.856 94.2942 615.611 97.3652H637.801C637.801 96.0042 637.591 94.6781 637.208 93.4217C636.824 92.1305 636.196 90.9789 635.359 90.0017C634.521 89.0246 633.44 88.222 632.149 87.6636C630.858 87.0703 629.323 86.7911 627.578 86.7911M647.395 91.8862C648.477 94.8875 649 98.4819 649 102.495V103.996C649 104.484 648.965 105.008 648.895 105.496L615.577 105.601C615.716 107.137 616.1 108.567 616.798 109.859C617.495 111.185 618.403 112.302 619.554 113.279C620.705 114.221 621.996 114.989 623.427 115.547C624.857 116.105 626.392 116.385 627.962 116.385C630.683 116.385 632.986 115.861 634.835 114.849C636.684 113.837 638.254 112.406 639.44 110.661L639.51 110.557L646.907 116.594C642.615 122.736 636.231 125.772 627.997 125.772C624.578 125.772 621.403 125.214 618.542 124.132C615.681 123.05 613.169 121.48 611.041 119.49C608.948 117.501 607.273 115.024 606.087 112.127C604.901 109.231 604.308 105.915 604.308 102.251C604.308 98.5866 604.901 95.3411 606.087 92.3748C607.273 89.4085 608.913 86.8609 611.006 84.7671C613.065 82.6732 615.577 81.033 618.403 79.8813C621.229 78.7297 624.334 78.1365 627.648 78.1365C630.683 78.1365 633.544 78.6599 636.126 79.672C638.708 80.684 640.976 82.2544 642.894 84.2785C644.778 86.3026 646.279 88.8501 647.36 91.8862" fill="#0A1229"/>
</svg>
