<svg xmlns="http://www.w3.org/2000/svg" fill="#033c6b" viewBox="0 0 869.5 869.5">
  <path d="M633.5 754.6c-12.8 0-23.1-10.3-23.1-23.1v-62.9c0-12.8 10.3-23.1 23.1-23.1s23.1 10.3 23.1 23.1v38c44.1-6.9 83.6-33.5 106.5-72.7 6.4-11 20.6-14.8 31.6-8.3 11 6.4 14.7 20.6 8.3 31.6-35 60-100 97.4-169.5 97.4m173-250.1c-12.8 0-23.1-10.3-23.1-23.1V336.7c0-96.8-78.8-175.6-175.6-175.6H428.6c-12.8 0-23.1-10.3-23.1-23.1s10.3-23.1 23.1-23.1h179.2c122.3 0 221.8 99.5 221.8 221.8v144.7c0 12.7-10.3 23.1-23.1 23.1M528.1 754.6H390.5c-31.8 0-57.7-25.9-57.7-57.7V570.4h-53.4c-29.4 0-53.4 23.9-53.4 53.4v76.5c0 29.9-24.4 54.3-54.3 54.3h-114C25.9 754.6 0 728.7 0 696.9V543.5c0-161.4 89.2-307.6 232.9-381.4 11.4-5.8 25.3-1.4 31.1 10 5.8 11.3 1.4 25.3-10 31.1C125.8 269.1 46.2 399.5 46.2 543.5v153.4c0 6.3 5.2 11.5 11.5 11.5h114c4.5 0 8.1-3.6 8.1-8.1v-76.5c0-54.9 44.7-99.6 99.6-99.6h76.5c12.8 0 23.1 10.3 23.1 23.1v149.6c0 6.3 5.2 11.5 11.5 11.5h127.7V591.7c0-12.8 10.3-23.1 23.1-23.1s23.1 10.3 23.1 23.1v126.5c0 20.1-16.3 36.4-36.3 36.4"/>
  <path d="M846.3 588.5h-78.7c-53.2 0-103.8-19.9-142.7-56H523.3c-117.8 0-213.6-95.8-213.6-213.6V141.1c0-12.8 10.3-23.1 23.1-23.1s23.1 10.3 23.1 23.1v177.8c0 92.3 75.1 167.4 167.4 167.4h110.9c6 0 11.7 2.3 16 6.4l4.4 4.2c30.6 29.3 70.8 45.4 113.1 45.4h78.7c12.8 0 23.1 10.3 23.1 23.1s-10.4 23.1-23.2 23.1"/>
  <path d="M671.4 342.7c-4.5 0-8.9-1.8-12.2-5.4l-24-26.3-26.5 26.8c-6.4 6.5-16.9 6.5-23.3.1-6.5-6.4-6.5-16.9-.1-23.3l38.8-39c3.2-3.2 7.4-5 12-4.9 4.5.1 8.8 2 11.8 5.4l35.7 39c6.2 6.7 5.7 17.2-1 23.3-3.2 2.8-7.2 4.3-11.2 4.3"/>
</svg>
